<svg width="24" height="24" viewBox="0 0 24 24" fill="none" xmlns="http://www.w3.org/2000/svg">
<path fill-rule="evenodd" clip-rule="evenodd" d="M3 2C2.73478 2 2.48043 2.10536 2.29289 2.29289C2.10536 2.48043 2 2.73478 2 3C2 3.26522 2.10536 3.51957 2.29289 3.70711C2.48043 3.89464 2.73478 4 3 4H4.074L4.234 6.077L4.85 14.094C4.91088 14.8844 5.28216 15.6187 5.8827 16.1362C6.48325 16.6537 7.26424 16.9125 8.055 16.856L18.41 16.116C19.1097 16.066 19.7698 15.7725 20.2755 15.2863C20.7812 14.8002 21.1005 14.1522 21.178 13.455L21.994 6.11C22.0095 5.97024 21.9953 5.8288 21.9524 5.69489C21.9095 5.56099 21.8388 5.43764 21.745 5.33289C21.6512 5.22814 21.5364 5.14435 21.408 5.08699C21.2796 5.02963 21.1406 4.99999 21 5H6.157L5.997 2.923C5.97761 2.67187 5.86415 2.4373 5.67932 2.26619C5.49448 2.09507 5.25188 2.00001 5 2H3ZM7 20.5C7 20.1022 7.15804 19.7206 7.43934 19.4393C7.72064 19.158 8.10218 19 8.5 19H8.51C8.90782 19 9.28936 19.158 9.57066 19.4393C9.85196 19.7206 10.01 20.1022 10.01 20.5V20.51C10.01 20.9078 9.85196 21.2894 9.57066 21.5707C9.28936 21.852 8.90782 22.01 8.51 22.01H8.5C8.10218 22.01 7.72064 21.852 7.43934 21.5707C7.15804 21.2894 7 20.9078 7 20.51V20.5ZM17.5 19C17.1022 19 16.7206 19.158 16.4393 19.4393C16.158 19.7206 16 20.1022 16 20.5V20.51C16 20.9078 16.158 21.2894 16.4393 21.5707C16.7206 21.852 17.1022 22.01 17.5 22.01H17.51C17.9078 22.01 18.2894 21.852 18.5707 21.5707C18.852 21.2894 19.01 20.9078 19.01 20.51V20.5C19.01 20.1022 18.852 19.7206 18.5707 19.4393C18.2894 19.158 17.9078 19 17.51 19H17.5Z" fill="black"/>
</svg>
