<svg width="54" height="56" viewBox="0 0 54 56" fill="none" xmlns="http://www.w3.org/2000/svg">
<path d="M21.2409 0.890681C21.7948 0.65782 22.7045 0.353438 23.2585 0.212058C23.9995 0.0257694 24.9257 -0.0274559 26.7434 0.0124631C28.7976 0.057372 29.4066 0.13222 30.32 0.451572C30.9252 0.664474 31.9157 1.10691 32.521 1.4379C33.1262 1.7689 34.0213 2.33608 34.5092 2.70201C34.9971 3.06627 35.8976 3.96278 36.5102 4.69463C37.1229 5.42648 37.7153 6.23151 37.8235 6.48433C38.0088 6.90681 38.1023 6.9434 39.0322 6.9434C39.5861 6.94506 40.5564 7.0565 41.1873 7.19123C41.8183 7.32762 42.8491 7.67358 43.48 7.96133C44.1734 8.27902 45.1014 8.91773 45.8296 9.58304C46.4917 10.1885 47.2107 11.0185 47.4272 11.431C47.6436 11.8435 47.9481 12.6285 48.104 13.1774C48.2599 13.7263 48.3864 14.5114 48.3846 14.9239C48.3827 15.3364 48.2672 16.1597 48.1296 16.7535C47.9939 17.3473 47.6528 18.2471 47.3758 18.7494C47.0915 19.2634 46.3377 20.1383 45.6553 20.7454C44.9896 21.3392 44.089 21.9762 42.8711 22.4919L40.1199 19.9969L40.9049 19.7823C41.3377 19.6659 41.9742 19.4031 42.3209 19.2002C42.6675 18.9989 43.2709 18.4966 43.6616 18.0841C44.0633 17.6617 44.4888 16.9731 44.6392 16.504C44.786 16.0466 44.9052 15.3364 44.9052 14.9239C44.9052 14.5114 44.764 13.8012 44.5915 13.3437C44.3898 12.8115 43.9441 12.2011 43.3517 11.6472C42.8418 11.1715 42.0127 10.6159 41.5083 10.413C40.9049 10.1702 40.2152 10.0421 39.4907 10.0371C38.8855 10.0338 38.1023 10.117 37.7483 10.2234C37.3943 10.3299 36.6937 10.7207 36.1893 11.0916C35.4795 11.6123 35.1163 11.7653 34.5844 11.7653C34.0305 11.7636 33.8049 11.6588 33.4179 11.223C33.0345 10.7889 32.9593 10.5677 33.0455 10.1003C33.1189 9.69615 33.405 9.30195 34.8136 8.10438L34.3679 7.39748C34.1222 7.00827 33.3592 6.19326 32.6714 5.58449C31.8111 4.8227 30.9913 4.29211 30.0448 3.88128C29.1516 3.49207 28.2199 3.23093 27.3853 3.13446C26.6663 3.05296 25.6575 3.04963 25.0926 3.12781C24.5387 3.20598 23.7133 3.38895 23.2585 3.53532C22.8036 3.68168 21.9177 4.13244 21.2867 4.53828C20.6319 4.96076 19.7809 5.72254 19.304 6.31634C18.8033 6.93675 18.3209 7.79168 18.1063 8.43704C17.9101 9.03083 17.7505 9.68617 17.7523 9.89242C17.7542 10.0987 17.5139 10.4912 17.2204 10.7656C16.8206 11.1366 16.5161 11.2646 16.0282 11.2646C15.5532 11.2646 15.2359 11.1382 14.88 10.8072C14.405 10.3665 14.3921 10.3049 14.6508 7.85488L13.8712 7.52223C13.2605 7.26275 12.7084 7.18957 11.3419 7.18957C9.77373 7.18957 9.4711 7.24279 8.40178 7.69853C7.74699 7.97797 6.87943 8.47363 6.47592 8.79797C6.0724 9.12398 5.45429 9.86747 5.1003 10.4513C4.48219 11.4759 4.45834 11.5773 4.45834 13.2606C4.45834 14.7808 4.5152 15.1035 4.89671 15.7555C5.13698 16.168 5.63221 16.8533 5.9972 17.2791C6.36037 17.7049 7.07202 18.2887 8.49349 19.0971L10.6945 18.2787C11.905 17.828 13.3907 17.2924 13.996 17.0895C14.7663 16.83 15.3037 16.7485 15.7843 16.82C16.2611 16.8899 16.6408 17.0978 17.5726 18.0841L16.0594 19.0405C15.2267 19.5661 13.9648 20.5192 13.2531 21.1612C12.5433 21.8016 11.6244 22.7746 11.2117 23.3235C10.799 23.8724 10.1717 24.8454 9.81775 25.4858C9.46376 26.1261 8.9667 27.2489 8.71359 27.9807C8.46048 28.7126 8.20553 29.6673 8.145 30.1014C8.08447 30.5355 7.95241 30.8915 7.85154 30.8915C7.74699 30.8915 7.61676 30.1147 7.55257 29.1034C7.48837 28.1204 7.49204 26.5287 7.56174 25.5689C7.6296 24.6092 7.73048 23.5231 7.78551 23.1572C7.88455 22.5035 7.87171 22.4869 7.08853 22.1841C6.65016 22.0161 5.75509 21.5554 5.1003 21.1629C4.44551 20.7703 3.3927 19.9553 2.76175 19.3499C2.1308 18.7461 1.36779 17.8014 1.06515 17.2525C0.762518 16.7036 0.382847 15.7489 0.219607 15.1318C0.00684508 14.3151 -0.0445113 13.6115 0.0361916 12.5537C0.109558 11.6123 0.313149 10.7024 0.613951 9.97558C0.868899 9.3585 1.35312 8.47862 1.68693 8.02121C2.02258 7.56381 2.65904 6.86024 3.10107 6.45606C3.54493 6.05354 4.32078 5.48802 4.82518 5.19861C5.32957 4.90919 6.15494 4.51666 6.65933 4.32704C7.16373 4.13576 8.07163 3.88793 8.67691 3.77649C9.36288 3.64842 10.3643 3.61016 11.3364 3.67503C12.1948 3.73158 13.266 3.88294 13.7208 4.01102C14.1757 4.13909 14.8984 4.38193 16.1107 4.86096L17.1617 3.79645C17.7413 3.20931 18.6694 2.41259 19.2233 2.02338C19.7772 1.63417 20.687 1.12521 21.2409 0.890681Z" fill="#F36409"/>
<path d="M20.2515 18.1535C21.0072 17.9139 22.2049 17.6146 22.911 17.4865C23.7988 17.3268 25.0992 17.2736 27.1296 17.3185C29.6241 17.3717 30.3119 17.4466 31.715 17.8191C32.6229 18.0586 34.026 18.551 34.8331 18.9119C35.6401 19.2729 36.4636 19.6637 36.6636 19.7802C36.8455 19.8871 37.2161 20.102 37.5197 20.2781L37.599 20.3241C37.9144 20.507 38.6114 20.9927 39.147 21.4052C39.6826 21.8177 40.4309 22.4531 40.8106 22.819C41.1903 23.1849 41.7955 23.8403 42.155 24.2744C42.5163 24.7085 42.8116 25.1027 42.8116 25.1476C42.8116 25.1925 43.0171 25.5302 43.2702 25.8961C43.5215 26.262 43.936 27.0288 44.1891 27.601C44.444 28.1731 44.8292 29.2776 45.0475 30.0543C45.3593 31.1604 45.4473 31.9737 45.4547 33.7967C45.4602 35.1573 45.3611 36.5395 45.2181 37.1233C45.0842 37.6722 44.7375 38.6818 44.4495 39.3687C44.1616 40.054 43.5013 41.2533 42.0431 43.4438L42.5659 43.838C42.852 44.0542 45.0255 45.4963 47.397 47.0415C49.7668 48.5884 52.1402 50.1136 52.6702 50.433C53.2003 50.7506 53.7157 51.1615 53.8166 51.3444C53.9175 51.5274 54 51.9765 54 52.3424C54 52.8514 53.8441 53.194 53.336 53.7978C52.9692 54.2319 52.4538 54.8008 52.1897 55.0602C51.9237 55.3197 51.4799 55.6374 51.2029 55.7671C50.926 55.8969 50.3885 56 50.0107 56C49.3559 55.9967 49.0735 55.7721 38.6848 46.3596L37.8594 46.8652C37.4046 47.143 36.559 47.5921 35.9794 47.8598C35.3998 48.1293 34.4919 48.4952 33.9618 48.6732C33.4318 48.8512 32.4615 49.1306 31.8067 49.2936C30.8511 49.5331 29.9414 49.5897 27.2213 49.583C24.3875 49.5747 23.6007 49.5165 22.4525 49.2304C21.695 49.0424 20.4166 48.6383 19.6096 48.3339C18.8025 48.0278 17.5223 47.4091 16.7666 46.9567C16.0091 46.5059 14.7087 45.5296 13.876 44.7894C13.0433 44.0493 12.0528 43.0363 11.675 42.5373C11.2972 42.0383 10.7176 41.1402 10.3874 40.5414C10.0554 39.9426 9.58038 38.8714 9.33277 38.1629C9.08333 37.4543 8.78803 36.1819 8.67431 35.3353C8.56242 34.4886 8.52024 33.1231 8.58077 32.2998C8.64313 31.4764 8.85772 30.204 9.05765 29.4722C9.25941 28.7403 9.87385 27.3182 10.4241 26.3119C10.9908 25.2773 11.9336 23.9051 12.5994 23.1516C13.245 22.4198 14.384 21.3686 15.1324 20.8181C15.8807 20.2658 17.0289 19.539 17.6837 19.2013C18.3385 18.8653 19.494 18.3946 20.2515 18.1535Z" fill="#F36409"/>
<path d="M38.8658 30.2703C39.9626 30.2703 40.2153 30.4975 40.6977 30.1433C41.0095 29.9154 41.2722 29.2629 41.3896 29.2613C41.3896 29.2613 41.7908 30.0019 41.9137 30.3479C42.0348 30.6922 42.231 31.5371 42.3484 32.2224C42.475 32.9592 42.519 34.1518 42.453 35.1331C42.3924 36.048 42.2072 37.2455 42.0439 37.7944C41.8807 38.3433 41.501 39.2781 41.2002 39.8735C40.8994 40.469 40.3363 41.3672 39.9457 41.8695C39.5568 42.3718 38.8415 43.087 38.3555 43.4579C37.8712 43.8272 37.2054 44.2962 36.8771 44.4975C36.5488 44.6987 36.2388 44.8251 36.1893 44.7802C36.138 44.7353 36.2315 44.4542 36.3966 44.1565C36.5598 43.8588 36.8496 43.0554 37.0404 42.3685C37.2293 41.6832 37.3852 40.8781 37.3834 40.5804C37.3815 40.138 37.5026 39.9717 38.0473 39.6656C38.4123 39.4594 38.8819 39.0286 39.0891 38.7092C39.4229 38.1903 39.4505 37.9607 39.3404 36.5885C39.2248 35.1598 39.2432 35.0234 39.6082 34.6757C39.9347 34.3664 39.9805 34.1867 39.8723 33.6362C39.8026 33.2703 39.6045 32.8378 39.4339 32.6748C39.2579 32.5051 38.8672 32.3804 38.5279 32.3837C37.9575 32.3887 37.9244 32.3521 37.7484 31.5571C37.6475 31.0997 37.5426 30.5049 37.5426 30.4599C37.5426 30.415 38.1597 30.2703 38.8658 30.2703Z" fill="#F4F7F7"/>
<path d="M33.2382 31.9313C33.0786 31.2227 32.7464 29.8855 32.8088 29.7658C32.8877 29.6144 33.4012 29.6809 35.3326 29.7658L35.7253 31.5304C35.9032 32.3089 35.9399 32.7729 35.8225 32.8095C35.7216 32.8411 35.2062 32.9459 34.6761 33.0424C34.1461 33.1405 33.671 33.2204 33.6215 33.2204C33.5701 33.2204 33.3996 32.6399 33.2382 31.9313Z" fill="#F4F7F7"/>
<path d="M28.6929 31.7236L29.8615 32.2057C30.3145 32.1509 30.8596 31.9896 31.0357 31.9763C31.2118 31.963 30.9618 30.6109 30.9618 30.7257C30.9599 30.8404 31.3875 32.7164 31.4645 33.0158C31.5746 33.4466 31.5471 33.5597 31.3288 33.553C31.1766 33.548 30.8611 33.7143 30.6263 33.9223C30.265 34.2433 30.2173 34.4046 30.32 34.9668C30.3879 35.3327 30.5805 35.7652 30.7474 35.9282C30.9161 36.0912 31.1564 36.2226 31.283 36.2193C31.4095 36.2159 31.5856 36.3823 31.6755 36.5885C31.7672 36.7948 31.7993 37.7408 32.1815 38.5015L31.0078 38.2086C30.4282 38.2086 29.7056 38.0938 29.4029 37.9541C29.1003 37.8144 28.6674 37.7029 28.44 37.7063C28.2126 37.7096 27.4181 38.2613 27.4145 38.2381C27.4126 38.2148 28.2419 37.179 28.517 36.6301C28.9536 35.7619 28.6764 34.834 28.6929 31.7236Z" fill="#F4F7F7"/>
<path d="M33.2638 41.4121C33.2088 40.8399 32.7538 40.4518 32.8088 40.3604C32.8638 40.2689 32.7619 39.4107 32.7931 39.4107C32.8224 39.4107 33.7811 40.1513 34.1571 40.2877C34.8064 40.5239 34.8394 40.5721 34.8522 41.3272C34.8614 41.763 34.6716 42.3561 34.3231 43.3874L33.8911 42.9506C33.4638 42.5448 33.3482 42.257 33.2638 41.4121Z" fill="#F4F7F7"/>
<path d="M22.4476 25.2784C22.5081 24.8443 22.5962 24.3902 22.6457 24.2688C22.7154 24.1008 22.8511 24.1257 23.2271 24.3802C23.4968 24.5632 24.1791 25.1486 24.7422 25.6809C25.3052 26.2148 26.0572 26.9866 26.4131 27.3991C26.7689 27.8116 27.3595 28.7081 27.7245 29.395C28.0913 30.0803 28.526 31.1282 28.6929 31.7236C28.8598 32.3191 29.0029 33.4418 29.0102 34.2186C29.0212 35.4577 28.9534 35.7671 28.4673 36.7135C28.1629 37.309 27.6254 38.0575 27.2751 38.3768C26.9248 38.6962 26.2535 39.1452 25.784 39.3748C25.3144 39.6026 24.8834 39.7341 24.8284 39.6659C24.7715 39.5977 24.9292 39.2983 25.1787 39.0005C25.4281 38.7028 25.7913 38.0857 25.9875 37.6283C26.1838 37.1709 26.4002 36.3476 26.4681 35.7987C26.5543 35.1118 26.5029 34.4514 26.3012 33.678C26.1416 33.0609 25.8316 32.2376 25.6152 31.8484C25.3988 31.4592 25.0466 30.9336 24.8357 30.6808C24.6229 30.4263 24.3882 30.2217 24.313 30.2234C24.2378 30.225 24.1736 30.3581 24.1717 30.5178C24.1699 30.6774 23.8287 31.3694 23.4142 32.0563C23.0015 32.7416 22.5283 33.4368 22.3651 33.5998C22.2 33.7628 22.0038 33.8942 21.9286 33.8909C21.8534 33.8876 21.6057 33.5433 20.9656 32.3623L20.353 33.4152C19.7753 34.4065 19.7459 34.5446 19.8174 35.7987C19.8725 36.7252 20.0174 37.3439 20.2925 37.8362C20.5126 38.2254 21.0408 38.8908 22.2495 40.0867L21.2407 40.0151C20.6758 39.9752 19.7881 39.7507 19.2232 39.5062C18.6674 39.265 17.8842 38.781 17.4789 38.4317C17.0754 38.0807 16.5838 37.4953 16.3876 37.1293C16.1913 36.7634 15.9969 35.9783 15.9547 35.3829C15.9052 34.686 15.9822 33.9774 16.173 33.3869C16.3362 32.8846 16.5435 32.3607 16.6352 32.2226C16.7764 32.0131 16.9176 32.058 18.2144 33.021L18.3354 31.6654C18.4015 30.9203 18.5922 30.0105 18.7573 29.6445C18.9224 29.2786 19.1773 28.8112 19.59 28.2307L20.2136 28.8545C20.5566 29.1971 20.8776 29.4399 20.9253 29.395C20.9748 29.3501 21.3123 28.5817 21.6773 27.6902C22.0423 26.7986 22.3889 25.7125 22.4476 25.2784Z" fill="#F36409"/>
<path d="M35.4114 30.0884C35.2151 29.2751 35.2243 29.0921 35.4719 28.7611C35.6902 28.4701 35.9029 28.3902 36.3413 28.4285C36.7485 28.4651 36.9814 28.6031 37.13 28.8959C37.2455 29.1237 37.3904 29.5928 37.4509 29.9354C37.5628 30.5492 37.5555 30.5592 36.9686 30.5575C36.6403 30.5575 36.2074 30.6639 36.0056 30.7937C35.6553 31.0199 35.6278 30.9866 35.4114 30.0884Z" fill="#F48941"/>
<path d="M22.9832 21.3247C23.5884 21.1667 24.6211 20.9788 25.2759 20.9056C25.9307 20.8341 27.2109 20.8108 28.1188 20.8557C29.0267 20.8989 30.3675 21.0802 31.0993 21.2565C31.8311 21.4328 33.0692 21.8487 33.8505 22.1813C34.6319 22.514 35.7672 23.1045 36.3725 23.4937C36.9778 23.8845 37.9279 24.6413 38.4818 25.1769C39.0357 25.7125 39.7529 26.4892 40.072 26.9001C40.3912 27.3126 40.8735 28.0977 41.1413 28.6465C41.521 29.4166 41.576 29.6611 41.3871 29.721C41.2514 29.7626 40.9139 29.9689 40.6369 30.1784C40.2169 30.4961 39.9179 30.5593 37.5647 30.5593L37.3703 29.6861C37.2639 29.2054 37.0787 28.7164 36.9576 28.5983C36.8384 28.4785 36.5119 28.3854 36.235 28.3904C35.9213 28.3937 35.626 28.5384 35.4573 28.7713C35.2665 29.0324 35.2243 29.3102 35.4554 30.235L34.4008 30.23C33.8212 30.2283 33.2434 30.2649 33.1169 30.3132C32.9775 30.3664 32.8161 30.1884 32.7042 29.8558C32.5446 29.3801 32.4346 29.3069 31.833 29.2703C31.3011 29.2387 31.103 29.3035 30.9618 29.5613C30.8395 29.7831 30.8395 30.1712 30.9618 30.7257C31.0626 31.1831 31.1452 31.6687 31.1452 31.8068C31.1452 31.9681 30.9031 32.0879 30.4574 32.1461C30.0795 32.196 29.5623 32.2659 29.311 32.3008C28.8947 32.3607 28.8323 32.2891 28.625 31.5041C28.4985 31.03 28.095 30.082 27.7263 29.395C27.3576 28.7097 26.6643 27.6985 26.1893 27.1496C25.7124 26.6007 24.7751 25.6842 24.1075 25.112C23.438 24.5399 22.8291 24.1024 22.7539 24.1374C22.6787 24.1739 22.5631 24.6031 22.4971 25.0937C22.4329 25.5844 22.0716 26.7338 21.6974 27.6486C21.3214 28.5634 20.9748 29.3501 20.9253 29.395C20.8776 29.4416 20.5566 29.1971 19.59 28.2307L19.324 28.605C19.1773 28.8112 18.9224 29.2786 18.7573 29.6445C18.5922 30.0104 18.4015 30.9203 18.2144 33.021L17.5082 32.4971C16.9176 32.0579 16.7764 32.0131 16.6352 32.2226C16.5435 32.3607 16.3362 32.8846 16.173 33.3869C15.9822 33.9774 15.9052 34.686 15.9547 35.3829C15.9969 35.9783 16.1913 36.7634 16.3876 37.1293C16.5838 37.4953 17.0754 38.0807 17.4789 38.4317C17.8842 38.781 18.6693 39.265 19.2232 39.5062C19.7881 39.7507 20.6758 39.9752 22.2495 40.0867L21.47 39.3149C21.0408 38.8908 20.5126 38.2254 20.2925 37.8362C20.0174 37.3439 19.8725 36.7252 19.8174 35.7987C19.7459 34.5446 19.7753 34.4065 20.9656 32.3623L21.3783 33.1241C21.6057 33.5433 21.8534 33.8876 21.9286 33.8909C22.0038 33.8942 22.2 33.7628 22.3651 33.5998C22.5283 33.4368 23.0015 32.7432 23.4142 32.0563C23.8287 31.371 24.1699 30.6774 24.1717 30.5178C24.1736 30.3581 24.2378 30.225 24.313 30.2234C24.3882 30.2217 24.6229 30.4263 24.8357 30.6808C25.0466 30.9336 25.3988 31.4592 25.6152 31.8484C25.8316 32.2376 26.1416 33.0609 26.3012 33.678C26.5029 34.4514 26.5543 35.1118 26.4681 35.7987C26.4002 36.3476 26.1838 37.1709 25.9875 37.6283C25.7913 38.0857 25.4281 38.7028 25.1787 39.0005C24.9292 39.2983 24.7715 39.5977 24.8284 39.6659C24.8834 39.7341 25.3162 39.6043 25.7876 39.3748C26.259 39.1469 26.9358 38.6812 27.2898 38.3419C27.6823 37.9676 28.1151 37.7215 28.3939 37.7131C28.647 37.7065 29.1003 37.8144 29.4029 37.9541C29.7056 38.0938 30.4282 38.2086 31.0078 38.2086C31.8442 38.2102 32.0861 38.2703 32.1815 38.5015C32.2457 38.6612 32.5079 39.0554 32.7647 39.3748C33.1426 39.8488 33.2398 40.1881 33.2893 41.2044C33.3443 42.3005 33.3803 42.5191 34.3231 43.3874L33.9881 43.9738C33.7864 44.3014 33.1884 44.9352 32.6583 45.3826C32.1283 45.8283 31.2204 46.4005 30.6408 46.6517C29.6778 47.0692 29.4027 47.1091 27.4769 47.1074C26.0169 47.1058 25.0007 47.0143 24.1754 46.808C23.5206 46.6434 22.4458 46.314 21.791 46.0745C21.1362 45.8367 20.0357 45.3343 19.346 44.9618C18.6564 44.5875 17.5394 43.7958 16.8626 43.2003C16.1858 42.6049 15.2577 41.5953 14.801 40.9549C14.3443 40.3145 13.7995 39.4546 13.5904 39.0421C13.3832 38.6296 13.0714 37.8811 12.9008 37.3788C12.7302 36.8765 12.5431 35.6407 12.4844 34.6344C12.3964 33.0909 12.4459 32.5436 12.7999 31.1415C13.0732 30.0603 13.5042 28.9825 14.0288 28.0644C14.4745 27.2876 15.1843 26.2481 15.608 25.7574C16.0335 25.2651 16.7929 24.5498 17.2973 24.1673C17.8017 23.7847 18.462 23.314 18.7646 23.1211C19.0672 22.9281 19.8926 22.5107 20.5988 22.1913C21.3049 21.8736 22.3779 21.4827 22.9832 21.3247Z" fill="#F7F7F7"/>
</svg>
