<svg width="24" height="24" viewBox="0 0 24 24" fill="none" xmlns="http://www.w3.org/2000/svg">
<path fill-rule="evenodd" clip-rule="evenodd" d="M4.22194 5.36399C5.23332 4.35238 6.57285 3.73539 7.999 3.62428C9.42515 3.51316 10.8441 4.15724 12 5C13.2212 4.11642 14.7302 3.48271 16.227 3.66072C17.7238 3.83874 19.0988 4.57344 20.0788 5.7188C21.0587 6.86416 21.5718 8.33632 21.5161 9.84264C21.4603 11.349 20.8398 12.7792 19.7779 13.849L14.1209 19.506C13.5584 20.0684 12.7955 20.5 12 20.5C11.2045 20.5 10.4415 20.0684 9.87894 19.506L4.22194 13.85C3.09681 12.7248 2.46472 11.1987 2.46472 9.60749C2.46472 8.01626 3.09681 6.4892 4.22194 5.36399Z" fill="black"/>
</svg>
