<svg width="24" height="24" viewBox="0 0 24 24" fill="none" xmlns="http://www.w3.org/2000/svg">
<path fill-rule="evenodd" clip-rule="evenodd" d="M12.6753 3.50144C12.6062 3.35174 12.4957 3.22495 12.3568 3.13609C12.2179 3.04723 12.0565 3 11.8916 3C11.7268 3 11.5653 3.04723 11.4265 3.13609C11.2876 3.22495 11.1771 3.35174 11.108 3.50144L8.86563 8.36125C8.71995 8.67697 8.42074 8.89435 8.07546 8.93532L2.76182 9.56583C2.59806 9.58517 2.44327 9.65101 2.31577 9.75557C2.18826 9.86013 2.09339 9.99903 2.04236 10.1558C1.99133 10.3126 1.9863 10.4808 2.02785 10.6403C2.06939 10.7999 2.15579 10.9443 2.2768 11.0563L6.20667 14.6892C6.46208 14.9253 6.57645 15.2772 6.50867 15.6184L5.46564 20.8687C5.43364 21.0304 5.4486 21.1978 5.50874 21.3513C5.56889 21.5047 5.67171 21.6377 5.80505 21.7346C5.93839 21.8314 6.09667 21.8881 6.26119 21.8978C6.4257 21.9075 6.58956 21.87 6.73341 21.7896L11.4032 19.1754C11.7067 19.0055 12.0766 19.0055 12.3801 19.1754L17.0499 21.7896C17.1938 21.8703 17.3579 21.9081 17.5226 21.8985C17.6874 21.8888 17.8459 21.8322 17.9795 21.7351C18.113 21.6381 18.2159 21.5049 18.276 21.3511C18.3361 21.1974 18.3508 21.0297 18.3185 20.8679L17.2755 15.6191C17.2077 15.278 17.322 14.9262 17.5773 14.6901L21.5065 11.0563C21.6275 10.9443 21.7139 10.7999 21.7554 10.6403C21.797 10.4808 21.7919 10.3126 21.7409 10.1558C21.6899 9.99903 21.595 9.86013 21.4675 9.75557C21.34 9.65101 21.1852 9.58517 21.0215 9.56583L15.7069 8.93452C15.3617 8.89351 15.0625 8.67611 14.9168 8.36041L12.6753 3.50144Z" fill="black"/>
</svg>
