<svg width="192" height="56" viewBox="0 0 192 56" fill="none" xmlns="http://www.w3.org/2000/svg">
<path d="M21.041 0.890681C21.5897 0.65782 22.4908 0.353438 23.0395 0.212058C23.7736 0.0257694 24.6911 -0.0274559 26.4916 0.0124631C28.5266 0.057372 29.1298 0.13222 30.0346 0.451572C30.6342 0.664474 31.6153 1.10691 32.2149 1.4379C32.8144 1.7689 33.7011 2.33608 34.1844 2.70201C34.6677 3.06627 35.5598 3.96278 36.1666 4.69463C36.7734 5.42648 37.3603 6.23151 37.4675 6.48433C37.651 6.90681 37.7437 6.9434 38.6648 6.9434C39.2135 6.94506 40.1747 7.0565 40.7997 7.19123C41.4247 7.32762 42.4458 7.67358 43.0708 7.96133C43.7576 8.27902 44.6769 8.91773 45.3982 9.58304C46.0541 10.1885 46.7664 11.0185 46.9807 11.431C47.1951 11.8435 47.4967 12.6285 47.6512 13.1774C47.8056 13.7263 47.931 14.5114 47.9292 14.9239C47.9273 15.3364 47.8129 16.1597 47.6766 16.7535C47.5422 17.3473 47.2042 18.2471 46.9299 18.7494C46.6483 19.2634 45.9015 20.1383 45.2256 20.7454C44.5661 21.3392 43.674 21.9762 42.4676 22.4919L39.7422 19.9969L40.5199 19.7823C40.9487 19.6659 41.5791 19.4031 41.9225 19.2002C42.2659 18.9989 42.8637 18.4966 43.2507 18.0841C43.6486 17.6617 44.0701 16.9731 44.2191 16.504C44.3644 16.0466 44.4825 15.3364 44.4825 14.9239C44.4825 14.5114 44.3426 13.8012 44.1718 13.3437C43.972 12.8115 43.5305 12.2011 42.9436 11.6472C42.4385 11.1715 41.6173 10.6159 41.1176 10.413C40.5199 10.1702 39.8367 10.0421 39.119 10.0371C38.5195 10.0338 37.7437 10.117 37.393 10.2234C37.0423 10.3299 36.3483 10.7207 35.8486 11.0916C35.1455 11.6123 34.7858 11.7653 34.2589 11.7653C33.7102 11.7636 33.4867 11.6588 33.1033 11.223C32.7236 10.7889 32.6491 10.5677 32.7345 10.1003C32.8072 9.69615 33.0906 9.30195 34.486 8.10438L34.0445 7.39748C33.801 7.00827 33.0452 6.19326 32.3638 5.58449C31.5117 4.8227 30.6996 4.29211 29.762 3.88128C28.8772 3.49207 27.9542 3.23093 27.1276 3.13446C26.4153 3.05296 25.416 3.04963 24.8564 3.12781C24.3077 3.20598 23.4901 3.38895 23.0395 3.53532C22.5889 3.68168 21.7114 4.13244 21.0864 4.53828C20.4377 4.96076 19.5947 5.72254 19.1223 6.31634C18.6263 6.93675 18.1485 7.79168 17.9359 8.43704C17.7415 9.03083 17.5834 9.68617 17.5852 9.89242C17.587 10.0987 17.349 10.4912 17.0583 10.7656C16.6622 11.1366 16.3606 11.2646 15.8773 11.2646C15.4068 11.2646 15.0924 11.1382 14.74 10.8072C14.2694 10.3665 14.2567 10.3049 14.5129 7.85488L13.7407 7.52223C13.1357 7.26275 12.5888 7.18957 11.2352 7.18957C9.68174 7.18957 9.38195 7.24279 8.3227 7.69853C7.67407 7.97797 6.81468 8.47363 6.41496 8.79797C6.01525 9.12398 5.40295 9.86747 5.05229 10.4513C4.44 11.4759 4.41638 11.5773 4.41638 13.2606C4.41638 14.7808 4.4727 15.1035 4.85062 15.7555C5.08863 16.168 5.57919 16.8533 5.94075 17.2791C6.3005 17.7049 7.00545 18.2887 8.41355 19.0971L10.5938 18.2787C11.793 17.828 13.2647 17.2924 13.8642 17.0895C14.6273 16.83 15.1597 16.7485 15.6357 16.82C16.1081 16.8899 16.4842 17.0978 17.4072 18.0841L15.9082 19.0405C15.0834 19.5661 13.8333 20.5192 13.1284 21.1612C12.4252 21.8016 11.515 22.7746 11.1062 23.3235C10.6974 23.8724 10.076 24.8454 9.72534 25.4858C9.37468 26.1261 8.88231 27.2489 8.63157 27.9807C8.38084 28.7126 8.12829 29.6673 8.06834 30.1014C8.00838 30.5355 7.87756 30.8915 7.77763 30.8915C7.67407 30.8915 7.54507 30.1147 7.48148 29.1034C7.41789 28.1204 7.42152 26.5287 7.49057 25.5689C7.55779 24.6092 7.65772 23.5231 7.71223 23.1572C7.81034 22.5035 7.79762 22.4869 7.02181 22.1841C6.58757 22.0161 5.70092 21.5554 5.05229 21.1629C4.40366 20.7703 3.36077 19.9553 2.73575 19.3499C2.11074 18.7461 1.35492 17.8014 1.05513 17.2525C0.755341 16.7036 0.379244 15.7489 0.21754 15.1318C0.00678065 14.3151 -0.0440924 13.6115 0.0358509 12.5537C0.108527 11.6123 0.310202 10.7024 0.608172 9.97558C0.860721 9.3585 1.34038 8.47862 1.67106 8.02121C2.00355 7.56381 2.63401 6.86024 3.07188 6.45606C3.51157 6.05354 4.28011 5.48802 4.77976 5.19861C5.27941 4.90919 6.09701 4.51666 6.59665 4.32704C7.0963 4.13576 7.99566 3.88793 8.59524 3.77649C9.27475 3.64842 10.2668 3.61016 11.2297 3.67503C12.08 3.73158 13.1411 3.88294 13.5917 4.01102C14.0423 4.13909 14.7581 4.38193 15.9591 4.86096L17.0002 3.79645C17.5743 3.20931 18.4937 2.41259 19.0424 2.02338C19.5911 1.63417 20.4923 1.12521 21.041 0.890681Z" fill="#F36409"/>
<path d="M20.0609 18.1535C20.8095 17.9139 21.9959 17.6146 22.6954 17.4865C23.5748 17.3268 24.8629 17.2736 26.8742 17.3185C29.3452 17.3717 30.0266 17.4466 31.4165 17.8191C32.3158 18.0586 33.7058 18.551 34.5052 18.9119C35.3046 19.2729 36.1204 19.6637 36.3185 19.7802C36.4987 19.8871 36.8658 20.102 37.1666 20.2781L37.2451 20.3241C37.5576 20.507 38.248 20.9927 38.7785 21.4052C39.3091 21.8177 40.0504 22.4531 40.4265 22.819C40.8026 23.1849 41.4021 23.8403 41.7582 24.2744C42.1162 24.7085 42.4087 25.1027 42.4087 25.1476C42.4087 25.1925 42.6122 25.5302 42.8629 25.8961C43.1118 26.262 43.5224 27.0288 43.7732 27.601C44.0257 28.1731 44.4073 29.2776 44.6235 30.0543C44.9324 31.1604 45.0196 31.9737 45.0268 33.7967C45.0323 35.1573 44.9342 36.5395 44.7924 37.1233C44.6598 37.6722 44.3164 38.6818 44.0312 39.3687C43.7459 40.054 43.0918 41.2533 41.6474 43.4438L42.1652 43.838C42.4487 44.0542 44.6017 45.4963 46.9509 47.0415C49.2983 48.5884 51.6494 50.1136 52.1745 50.433C52.6996 50.7506 53.2101 51.1615 53.31 51.3444C53.41 51.5274 53.4917 51.9765 53.4917 52.3424C53.4917 52.8514 53.3373 53.194 52.834 53.7978C52.4706 54.2319 51.9601 54.8008 51.6985 55.0602C51.435 55.3197 50.9953 55.6374 50.721 55.7671C50.4466 55.8969 49.9143 56 49.54 56C48.8914 55.9967 48.6116 55.7721 38.3207 46.3596L37.5031 46.8652C37.0525 47.143 36.2149 47.5921 35.6408 47.8598C35.0666 48.1293 34.1673 48.4952 33.6422 48.6732C33.1171 48.8512 32.156 49.1306 31.5073 49.2936C30.5607 49.5331 29.6595 49.5897 26.9651 49.583C24.158 49.5747 23.3785 49.5165 22.2412 49.2304C21.4908 49.0424 20.2244 48.6383 19.425 48.3339C18.6255 48.0278 17.3574 47.4091 16.6088 46.9567C15.8584 46.5059 14.5702 45.5296 13.7454 44.7894C12.9205 44.0493 11.9394 43.0363 11.5651 42.5373C11.1908 42.0383 10.6167 41.1402 10.2896 40.5414C9.96078 39.9426 9.49021 38.8714 9.24493 38.1629C8.99783 37.4543 8.70531 36.1819 8.59266 35.3353C8.48183 34.4886 8.44004 33.1231 8.5 32.2998C8.56178 31.4764 8.77435 30.204 8.97239 29.4722C9.17225 28.7403 9.78091 27.3182 10.326 26.3119C10.8874 25.2773 11.8213 23.9051 12.4808 23.1516C13.1204 22.4198 14.2487 21.3686 14.9899 20.8181C15.7312 20.2658 16.8686 19.539 17.5172 19.2013C18.1659 18.8653 19.3105 18.3946 20.0609 18.1535Z" fill="#F36409"/>
<path d="M75.593 19.4914C75.8183 19.2586 76.3288 18.9575 76.7286 18.8228C77.1682 18.6747 77.8841 18.5999 78.5454 18.6332C79.1959 18.6664 79.8918 18.8228 80.2715 19.019C80.7421 19.2619 80.9201 19.4748 80.9565 19.8391C80.9855 20.1085 80.9038 20.4312 80.7748 20.5559C80.604 20.7239 80.266 20.7522 79.4539 20.669C78.48 20.5676 78.3256 20.5942 78.0004 20.9185C77.7551 21.1614 77.6388 21.504 77.6443 21.9681C77.6479 22.3473 77.7097 22.8646 77.7805 23.1157C77.9095 23.5715 77.9168 23.5731 79.5902 23.5931C80.515 23.6031 81.3526 23.5931 81.4525 23.5682C81.7261 23.5682 81.8595 23.4966 82.1338 23.465C82.6298 23.4068 82.6335 23.4002 82.6316 22.1178C82.6316 21.1098 82.7207 20.6657 83.0404 20.0802C83.3402 19.533 83.6709 19.2286 84.2687 18.9475C84.9518 18.6265 85.3097 18.5716 86.4489 18.6165C87.3865 18.6531 88.0387 18.7779 88.5384 19.0157C89.127 19.2968 89.2742 19.4615 89.3105 19.8873C89.3396 20.2333 89.2324 20.526 88.9926 20.7455C88.6474 21.0616 88.5892 21.0649 87.857 20.8204C87.4319 20.679 86.8014 20.5859 86.4544 20.6125C86.0056 20.6474 85.7513 20.7821 85.5677 21.0782C85.3842 21.3743 85.3443 21.7685 85.426 22.4504C85.5332 23.3419 85.5768 23.4151 86.0892 23.5316C86.6215 23.653 87.943 23.6903 87.9376 24.6167C87.9339 25.4617 86.5888 25.5691 86.2673 25.5691C85.9438 25.5691 85.9039 25.6805 85.9039 27.565H82.6335V25.5691C82.6335 25.5691 82.4926 25.5075 81.9521 25.5075C81.4117 25.5075 81.3968 25.5175 81.2174 25.5175C81.0381 25.5175 80.4974 25.5691 79.9432 25.5691C79.3891 25.5674 77.9895 25.6789 74.819 25.4859L74.8208 23.3236C74.8226 22.1344 74.9044 20.8803 75.0043 20.5376C75.1024 20.195 75.3677 19.7243 75.593 19.4914Z" fill="#F36A13"/>
<path d="M61.281 19.4085C61.6298 19.2438 62.4074 19.0143 63.007 18.8962C63.6066 18.7781 64.4242 18.675 64.8239 18.6667C65.2236 18.66 66.0412 18.7349 66.6408 18.8347C67.2404 18.9345 68.1397 19.2022 68.6394 19.4285C69.139 19.6563 69.8549 20.1171 70.9141 21.0668L71.5919 22.0169L71.1273 21.8609H70.4005L70 22.7027C69.4749 23.1851 69.047 23.1932 68.947 23.1915C68.8471 23.1915 68.3941 22.5371 68.0943 22.1995C67.7945 21.8619 67.2222 21.451 66.8225 21.288C66.3882 21.11 65.656 20.9903 65.0056 20.9903C64.237 20.9886 63.6793 21.0984 63.1106 21.3595C62.6672 21.5641 62.0713 21.9933 61.7861 22.3143C61.5026 22.6353 61.1374 23.3089 60.9775 23.8112C60.7759 24.4483 60.7141 25.1053 60.7777 25.9735C60.8285 26.6738 61.0266 27.5503 61.2264 27.9695C61.4227 28.382 61.8842 28.9608 62.2494 29.2585C62.789 29.696 63.9945 30.496 64 31C64.0054 31.3626 62.8108 31.1513 62.6436 31.296C62.4856 31.4341 62.3584 31.6387 62.3638 31.7534C62.3675 31.8682 62.2893 31.9614 62.1894 31.9614C62.0895 31.9614 61.6225 31.7934 61.1538 31.5871C60.6832 31.3809 59.9328 30.8769 59.4877 30.4644C59.0407 30.0519 58.4302 29.2302 58.1305 28.6348C57.7017 27.7865 57.5672 27.2493 57.5 26.1398C57.4473 25.2932 57.5073 24.3601 57.6472 23.8112C57.7743 23.3089 58.0632 22.5604 58.2885 22.1479C58.5138 21.7354 59.1352 21.0186 59.6712 20.5528C60.2072 20.0888 60.9321 19.5732 61.281 19.4085Z" fill="#F36A13"/>
<path d="M101.802 19.6112C102.301 19.3767 103.161 19.0889 103.709 18.9708C104.258 18.8527 105.199 18.7912 105.799 18.8328C106.398 18.8743 107.176 18.9825 107.525 19.0739C107.874 19.1654 108.55 19.4665 109.024 19.7426C109.498 20.0204 110.009 20.4328 110.159 20.6624C110.405 21.0366 110.401 21.1397 110.114 21.7019C109.872 22.176 109.676 22.3357 109.296 22.3673C109.022 22.3905 108.571 22.2708 108.297 22.1011C108.023 21.9331 107.51 21.7069 107.162 21.6005C106.813 21.4924 106.075 21.4059 105.526 21.4059C104.841 21.4059 104.242 21.5339 103.619 21.8101C102.984 22.0911 102.532 22.4554 102.118 23.0176C101.785 23.4684 101.438 24.2252 101.327 24.7374C101.218 25.2398 101.186 25.9882 101.255 26.4007C101.324 26.8132 101.535 27.4852 101.722 27.8977C101.911 28.3102 102.232 28.7959 102.439 28.9788C102.699 29.2117 102.808 29.5128 102.799 29.9768C102.79 30.4409 102.637 30.8101 102.294 31.1943C101.816 31.7299 101.785 31.7399 101.257 31.507C100.957 31.3756 100.345 30.9332 99.894 30.5257C99.4434 30.1182 98.8311 29.3414 98.5313 28.7992C98.0244 27.8827 97.9862 27.6881 97.9862 25.9849C97.9862 24.4347 98.0553 23.9906 98.4386 23.0742C98.7511 22.3273 99.1999 21.692 99.8921 21.015C100.443 20.4778 101.302 19.8457 101.802 19.6112Z" fill="#F36A13"/>
<path d="M149.688 19.9971C150.12 19.7226 150.887 19.37 151.392 19.212C151.992 19.0257 152.896 18.9242 153.992 18.9209C154.917 18.9176 155.774 18.9542 155.9 19.0008C156.06 19.059 156.568 19.7977 156.49 21.9167L155.264 21.4591C154.839 21.3926 154.205 21.3543 153.856 21.3709C153.507 21.3876 152.933 21.494 152.584 21.6055C152.235 21.7169 151.41 22.4763 150.305 23.5225L150.055 22.6217C149.797 22.3257 149.422 22.0862 149.223 22.0878C149.023 22.0895 148.667 21.9564 148.003 21.494L148.452 20.995C148.698 20.7206 149.253 20.2715 149.688 19.9971Z" fill="#F36A13"/>
<path d="M130.074 23.989C130.503 23.7145 131.224 23.4018 131.68 23.2937C132.135 23.1856 132.671 23.0941 132.871 23.0891C133.07 23.0858 133.581 23.1557 134.006 23.2438C134.431 23.3336 135.751 23.5753 136 23.7117C136.431 23.9479 135.672 23.9291 135.416 24.3632C135.265 24.6144 136 25.5701 136 25.7297C135.998 25.9825 135.014 25.3895 134.188 25.3096C133.419 25.2348 133.119 25.283 132.643 25.5591C132.318 25.7471 131.909 26.1047 131.735 26.3525C131.519 26.6585 131.417 27.1342 131.417 27.8495C131.417 28.6661 131.357 28.8973 131.145 28.9007C130.994 28.904 130.483 29.1668 130.009 29.4828C129.535 29.8005 129.024 30.06 128.873 30.06C128.717 30.06 128.508 29.7922 128.386 29.4362C128.267 29.0936 128.17 28.3268 128.168 27.7314C128.167 26.8615 128.276 26.439 128.73 25.5691C129.14 24.784 129.508 24.3516 130.074 23.989Z" fill="#F36A13"/>
<path d="M113.326 25.3312C113.315 24.0655 113.372 23.7112 113.621 23.495C113.85 23.2937 114.207 23.2372 115.04 23.2754C116.104 23.322 116.166 23.3486 116.7 24.4247L117.064 24.0655C117.263 23.8675 117.652 23.5998 117.927 23.4733C118.201 23.3453 118.877 23.2405 119.426 23.2405C120.227 23.2405 120.501 23.3153 120.812 23.6147C121.123 23.9158 121.173 24.1037 121.07 24.5711C121.001 24.8921 120.826 25.3213 120.685 25.5275C120.467 25.8419 120.33 25.8818 119.834 25.7787C119.509 25.7105 118.89 25.6539 118.457 25.6539C117.781 25.6523 117.585 25.7387 116.428 26.8997H113.339L113.326 25.3312Z" fill="#F36A13"/>
<path d="M147.088 25.2348C147.413 25.2348 147.724 25.1616 147.778 25.0701C147.833 24.9786 148.18 24.9054 148.55 24.9054C148.919 24.9071 149.8 23.6618 150 23.7117C150.298 23.7849 149.955 25.2431 149.984 25.9516C150.004 26.4274 150.151 27.1525 150.311 27.565C150.473 27.9775 150.783 28.4815 151.003 28.6861C151.374 29.0304 151.773 29.4946 151.5 29.7658C151.34 29.9271 151.065 30.0424 151 30.2703C150.936 30.4998 150.543 30.6174 149.849 31.3908L148.625 30.4758C147.909 29.8038 147.438 29.1801 147.184 28.563C146.975 28.0607 146.917 27.1112 146.679 25.24C146.839 25.2379 147.088 25.2348 147.088 25.2348Z" fill="#F36A13"/>
<path d="M90.1263 27.3155C90.1009 26.8581 90.1718 26.3908 90.2826 26.276C90.4279 26.128 91.2401 26.0681 93.1006 26.0681C95.5334 26.0681 95.7278 26.0914 95.8968 26.4007C95.9967 26.5837 96.0821 26.9762 96.0857 27.274C96.0912 27.5717 96.1308 28.1391 96 28.2523C95.831 28.4003 91 28.2523 90.5 28.2523C90 28.2523 90.1263 27.3155 90.1263 27.3155Z" fill="#F36A13"/>
<path d="M66.8701 29.9419C67.1953 29.8321 67.6604 29.551 67.9021 29.3182C68.1437 29.087 68.4708 28.894 68.6288 28.8923C68.7869 28.8907 69.7669 28.3903 71.3149 29.6427L70.0061 31.1128C69.5064 31.4488 68.5671 31.8713 67.9166 32.0543C66.7992 32.367 66.7229 32.3703 66.514 32.0959C66.3923 31.9362 66.2887 31.4322 66.2851 30.9748C66.276 30.1847 66.3069 30.1332 66.8701 29.9419Z" fill="#F36A13"/>
<path d="M186.832 19.3686C187.032 19.2737 187.604 19.1457 188.104 19.0808C188.604 19.0159 189.34 18.9976 189.739 19.0409C190.139 19.0841 190.746 19.2421 191.089 19.3918C191.433 19.5415 191.8 19.796 191.907 19.9574C192.052 20.1753 192.03 20.3649 191.82 20.7058C191.6 21.0618 191.42 21.1533 191.002 21.1233C190.708 21.1017 190.097 21.0352 189.648 20.9753C188.963 20.8838 188.765 20.9237 188.422 21.2215C188.117 21.4876 188.013 21.7654 188.013 22.3259C188.013 22.7384 188.053 23.1875 188.104 23.3239C188.175 23.5168 188.511 23.5734 189.603 23.57C190.501 23.5684 191.095 23.6449 191.242 23.7779C191.367 23.8944 191.471 24.2703 191.469 24.6129C191.467 24.9605 191.338 25.3481 191.18 25.4861C190.982 25.6591 190.506 25.7356 188.377 25.7356V27.5653L185.288 27.5652V27.0363C185.288 26.4725 185.286 26.4405 185.288 26.2342C185.29 25.9698 184.999 25.7356 184.743 25.7356C184.543 25.7356 184.256 25.5676 184.105 25.3614C183.954 25.1551 183.833 24.8192 183.833 24.6129C183.834 24.4067 183.916 24.089 184.016 23.906C184.125 23.7064 184.379 23.5734 184.652 23.5734C185.079 23.5734 185.106 23.5201 185.108 22.7001C185.108 22.2194 185.19 21.5458 185.29 21.2032C185.388 20.8605 185.695 20.3449 185.969 20.0588C186.244 19.7727 186.632 19.4617 186.832 19.3686Z" fill="#F46D16"/>
<path d="M122.754 20.3249C122.723 19.4916 122.763 19.3902 123.163 19.2455C123.406 19.1573 124.02 19.1041 124.527 19.1257C125.036 19.1473 125.592 19.2787 125.763 19.4151C125.955 19.5698 126.07 19.9008 126.064 20.2884C126.061 20.6826 125.923 21.0352 125.694 21.2447C125.427 21.4893 125.089 21.5774 124.422 21.5774C123.922 21.5774 123.35 21.5026 123.15 21.4111C122.859 21.278 122.779 21.0601 122.754 20.3249Z" fill="#F46D16"/>
<path d="M136.019 21.772C136.003 20.4148 136.061 19.2521 136.148 19.1873C136.235 19.1224 136.922 19.0908 139.048 19.1656L139.09 25.4861C139.121 30.2914 139.077 31.8582 138.908 32.0212C138.783 32.1426 138.301 32.2341 137.822 32.2291C137.347 32.2258 136.795 32.1476 136.595 32.0561C136.395 31.9647 136.232 31.7784 136.232 31.6403C136.232 31.5023 136.212 31.3925 136.186 31.3925C136.161 31.3942 135.65 31.6204 135.051 31.8965C134.288 32.2458 133.701 32.3955 133.098 32.3921C132.623 32.3905 131.846 32.299 131.372 32.1892C130.77 32.0495 130.247 31.7584 129.649 31.2328C129.177 30.817 128.437 29.6788 128.435 29.564C128.434 29.4493 128.773 29.6364 128.873 29.6364C128.973 29.6364 129.535 29.8005 130.009 29.4828C130.483 29.1668 130.97 27.935 131.145 27.9317C131.319 27.93 131.655 29.1387 131.835 29.4365C132.073 29.8323 132.378 30.0369 132.97 30.2032C133.575 30.3729 133.939 30.3862 134.415 30.2548C134.764 30.16 135.276 29.8523 135.55 29.5712C136.012 29.1005 136.05 28.9558 136.05 27.6484C136.05 26.3195 136.019 26.2097 135.55 25.8088C135.093 25.4196 135.067 25.3315 135.236 24.7693C135.367 24.3318 135.275 23.6818 135.5 23.7117C135.787 23.75 136.048 24.0274 136.019 21.772Z" fill="#F46D16"/>
<path d="M155.994 20.5778C156.021 19.984 155.724 19.094 155.771 18.9775C155.965 18.9775 156.361 19.129 156.899 19.332C157.273 19.475 157.775 19.7195 158.013 19.8775C158.251 20.0339 159.215 20.8266 159.215 21.0951C159.215 21.3635 159 21.6937 159 21.6937C158.8 22.0247 158.345 22.3791 158.171 22.4789C157.935 22.6136 157.751 22.597 157.444 22.4174C157.219 22.2843 156.79 22.0598 156.49 21.9167C155.96 21.6639 155.947 21.6273 155.994 20.5778Z" fill="#F46D16"/>
<path d="M68.825 23.0744L69.8697 22.1629C70.4438 21.6622 70.5 21.1892 70.5 21.1892C71 21.6937 71.5031 21.7504 71.7756 22.2494C72.05 22.7484 72.3661 23.6066 72.4788 24.1555C72.5896 24.7077 72.6314 25.6907 72.5696 26.3594C72.5096 27.023 72.2789 27.996 72.0572 28.5217C71.8374 29.0472 70.8809 30.1461 70.2359 30.8546L69.8697 29.6427C69.3446 29.2319 68.1254 29.2613 68 29.2613C67.8419 29.2629 68.5779 28.658 68.8504 28.1058C69.103 27.5885 69.2647 26.855 69.3174 25.9851C69.3719 25.052 69.3101 24.4183 68.825 23.0744Z" fill="#F46D16"/>
<path d="M146.811 24.2588C146.811 24.2588 147.155 22.8756 147.413 22.3834C147.671 21.8911 147.938 21.4908 148.007 21.4942C148.076 21.4976 148.296 21.6134 148.496 21.7531C148.696 21.8928 149.057 22.0052 149.299 22.0035C149.591 22.0012 149.873 22.1846 150.146 22.5537C150.527 23.0698 150.538 23.155 150.305 23.7887C150.169 24.1634 150.053 24.6046 150.047 24.7681C150.042 25.0305 149.913 25.0526 148.995 24.9538C148.283 24.8771 148.093 25.0907 148 25.2252C147.926 25.3342 147.453 25.2383 146.679 25.24C146.731 24.8568 146.811 24.2588 146.811 24.2588Z" fill="#F46D16"/>
<path d="M122.774 25.6641C122.763 24.1073 122.814 23.7164 123.059 23.5018C123.255 23.3289 123.708 23.2374 124.389 23.234C125.014 23.2291 125.503 23.3106 125.63 23.442C125.743 23.5601 125.863 24.1805 125.892 24.8208C125.923 25.4612 125.93 26.3411 125.875 27.5653H122.787L122.774 25.6641Z" fill="#F46D16"/>
<path d="M165.622 24.3335C165.584 23.5517 165.625 23.422 165.94 23.3555C166.138 23.3139 166.792 23.269 167.391 23.2573C168.215 23.2424 168.703 23.3372 169.39 23.6449C170.106 23.9659 170.395 24.2237 170.747 24.8524C171.149 25.571 171.2 25.887 171.298 30.2265H168.209L168.205 28.6048C168.204 27.7133 168.118 26.722 168.015 26.401C167.9 26.0467 167.617 25.7057 167.292 25.5277C166.997 25.368 166.51 25.2366 166.21 25.2366C165.676 25.2366 165.664 25.2167 165.622 24.3335Z" fill="#F46D16"/>
<path d="M174.959 24.3601C175.393 24.0141 176.076 23.6266 176.476 23.5002C176.876 23.3721 177.815 23.2623 178.565 23.2573C179.526 23.2507 180.142 23.3388 180.655 23.5567C181.054 23.7247 181.627 24.1023 181.927 24.395C182.408 24.8624 182.472 25.0437 182.472 25.9253C182.472 26.875 182.435 26.9548 181.745 27.5503C181.167 28.0493 180.749 28.2339 179.701 28.4535C178.976 28.6048 177.893 28.7296 177.294 28.7296C176.547 28.7296 176.202 28.7944 176.198 28.9375C176.194 29.0522 176.378 29.3649 176.607 29.6327C176.834 29.9005 177.286 30.2182 177.611 30.3396C178.177 30.5492 178.202 30.5974 178.202 32.3888L177.521 32.294C177.146 32.2424 176.411 32.0179 175.885 31.795C175.36 31.5721 174.73 31.1846 174.483 30.9334C174.236 30.6823 173.858 30.14 173.642 29.7275C173.365 29.2053 173.244 28.6514 173.238 27.8979C173.231 27.0696 173.338 26.6039 173.698 25.902C173.967 25.3797 174.508 24.7177 174.959 24.3601Z" fill="#F46D16"/>
<path d="M75.1841 32.0561C74.8407 31.8981 74.8207 31.7235 74.8207 28.7296V24.7778C75.4948 24.7795 77.457 25.6109 77.6823 25.6541C78.0139 25.7178 78.0911 25.7573 78.0911 28.8127C78.0911 31.7235 78.0712 31.8981 77.7278 32.0561C77.5279 32.1476 76.9556 32.2225 76.4559 32.2225C75.9563 32.2225 75.384 32.1476 75.1841 32.0561Z" fill="#F46D16"/>
<path d="M113.339 28.8959L113.339 26.8997L116.609 26.6018V28.8959H113.339Z" fill="#F46D16"/>
<path d="M82.8569 32.0179C82.6952 31.8699 82.6279 31.1796 82.6297 29.686L82.6335 27.565H85.9039L85.9038 29.7275C85.9038 31.7235 85.8765 31.9031 85.5404 32.0561C85.3405 32.1476 84.7065 32.2241 84.1323 32.2258C83.5273 32.2275 82.9913 32.1393 82.8569 32.0179Z" fill="#F46D16"/>
<path d="M150.736 29.9072C150.718 29.7774 150.847 29.5363 151.025 29.3699C151.337 29.0822 151.366 29.0822 151.83 29.3766C152.095 29.5446 152.638 29.7774 153.038 29.8939C153.492 30.0253 154.139 30.0652 154.764 30.0003C155.313 29.9421 156.13 29.7059 156.581 29.4731C157.03 29.2419 157.542 29.0539 157.716 29.0572C157.891 29.0606 158.238 29.2502 158.489 29.478C158.77 29.7375 158.943 30.0818 158.943 30.3929C158.943 30.7771 158.785 30.9983 158.262 31.3542C157.887 31.6071 157.048 31.953 156.399 32.121C155.48 32.3589 154.835 32.4088 153.492 32.3422C152.224 32.279 151.512 32.1526 150.805 31.8649C150.276 31.6503 149.846 31.4374 149.849 31.3908C149.851 31.3459 150.06 31.0465 150.313 30.7255C150.565 30.4062 150.756 30.0369 150.736 29.9072Z" fill="#F46D16"/>
<path d="M106.889 29.9754C107.189 29.9255 107.597 29.7425 107.797 29.5679C108.5 28.7568 108.439 29.2468 110.977 29.2285V29.977C110.977 30.5791 110.879 30.8087 110.477 31.1497C110.203 31.3825 109.527 31.7318 108.978 31.9264C108.255 32.1826 107.427 32.3007 105.98 32.3539C104.485 32.4104 103.718 32.3605 102.937 32.1593C102.363 32.0112 101.067 31.4994 101.067 31.4079C101.067 31.3164 102.096 31.3326 102.347 31.0582C102.641 30.7355 102.801 30.3546 102.801 29.977C102.801 29.493 101.735 28.6686 102 28.7568C102.174 28.8133 103.722 29.7043 104.073 29.8257C104.422 29.9471 105.076 30.0502 105.526 30.0552C105.975 30.0602 106.589 30.0236 106.889 29.9754Z" fill="#F46D16"/>
<path d="M62.6436 31.296C62.8017 31.1597 62.4891 30.6229 62.5 30.2703C62.5164 29.7447 62.2638 29.661 62.5 29.7658C62.4573 29.4352 64.3486 30.2703 66.4231 30.1557L66.463 31.0234C66.463 31.4808 66.3631 31.9281 66.463 31.973C66.563 32.0196 67.1308 31.973 67 32.2883C67.0874 32.268 66.0215 32.3905 65.1458 32.3905C64.3209 32.3921 63.3798 32.3356 63.0509 32.2657C62.7093 32.1925 61.1556 31.7302 61.1538 31.5871C61.152 31.4507 62.4837 31.4341 62.6436 31.296Z" fill="#F46D16"/>
<path d="M161 31.7838C160.976 31.4678 160.985 30.8935 161.312 30.7621C161.557 30.6623 162.311 30.5775 164.212 30.5592V31.2245C164.212 31.7235 164.121 31.9314 163.849 32.0561C163.649 32.1476 162.44 32.2258 162.44 32.2258C162.44 32.2258 162 32.2883 161.5 32.2883C161 32.2883 161.02 32.0216 161 31.7838Z" fill="#F46D16"/>
<path d="M160.905 25.1867C160.874 20.4729 160.913 19.4466 161.123 19.282C161.271 19.1655 161.936 19.0824 162.704 19.0824C163.722 19.0824 164.052 19.1406 164.121 19.3319C164.172 19.4683 164.212 20.6658 164.212 24.4049L164.757 23.9891C165.057 23.7612 165.84 23.3555 165.94 23.3555C166.04 23.3555 166.5 24.2184 166.5 24.7207C166.5 25.223 166 25.2252 165.484 25.4029C165.384 25.4029 165.057 25.5908 164.212 26.2345L164.212 30.5592L162.895 30.609C162.17 30.6356 161 31.7838 161 31.7838C161 31.7838 160.94 30.5458 160.905 25.1867Z" fill="#F47019"/>
<path d="M105.119 26.0599C105.103 25.7306 105.203 25.3813 105.345 25.2698C105.516 25.1368 106.413 25.0686 108.061 25.0669C109.809 25.0652 110.59 25.1251 110.754 25.2748C110.912 25.4212 110.982 26.065 110.977 29.2285L107.979 29.5679V27.1493L106.798 27.0961C106.148 27.0678 105.512 26.9564 105.383 26.8466C105.252 26.7385 105.134 26.3842 105.119 26.0599Z" fill="#F47019"/>
<path d="M123.15 32.056C122.814 31.903 122.787 31.7234 122.787 29.7274L122.787 27.5653H125.875L125.879 29.6859C125.881 31.1296 125.812 31.8731 125.661 32.0145C125.539 32.1292 125.007 32.2224 124.477 32.2224C123.946 32.2224 123.35 32.1475 123.15 32.056Z" fill="#F47019"/>
<path d="M185.561 32.1392C185.337 32.071 185.288 31.6585 185.288 29.8106V27.5652L188.377 27.5653L188.38 29.6859C188.382 31.1296 188.313 31.8731 188.162 32.0145C188.035 32.1342 187.49 32.2224 186.887 32.2224C186.307 32.2224 185.711 32.1841 185.561 32.1392Z" fill="#F47019"/>
<path d="M113.612 31.9729C113.412 31.7899 113.339 31.3442 113.339 30.3096L113.339 28.8959H116.609L116.609 30.3928C116.609 31.7234 116.569 31.908 116.246 32.056C116.046 32.1475 115.432 32.2224 114.883 32.2224C114.237 32.2224 113.788 32.1342 113.612 31.9729Z" fill="#F47019"/>
<path d="M178.974 30.5574C179.414 30.5558 180.139 30.3811 180.655 30.1549C181.155 29.9337 181.625 29.7474 181.7 29.7407C181.774 29.7341 181.999 29.8771 182.199 30.0601C182.399 30.2431 182.563 30.5042 182.563 30.6423C182.563 30.7803 182.492 31.0231 182.405 31.1828C182.317 31.3425 181.807 31.6519 181.269 31.8698C180.731 32.086 179.824 32.2275 178.202 32.3888L177.611 30.3396C177.611 30.3396 178.01 30.5147 178.281 30.5574C178.549 30.5995 178.974 30.5574 178.974 30.5574Z" fill="#F47019"/>
<path d="M168.433 32.0178C168.307 31.9014 168.204 31.4506 168.206 31.0165L168.209 30.2265H171.298L171.298 31.0581C171.298 31.7234 171.225 31.923 170.935 32.056C170.735 32.1475 170.142 32.224 169.617 32.2257C169.085 32.2274 168.562 32.1342 168.433 32.0178Z" fill="#F47019"/>
<path d="M176.295 26.1514C176.445 25.8303 176.832 25.4195 177.158 25.2366C177.53 25.0286 178.068 24.9056 178.611 24.9039C179.232 24.9039 179.576 24.997 179.838 25.2366C180.037 25.4195 180.203 25.7372 180.206 25.9435C180.208 26.1497 180.025 26.484 179.798 26.6853C179.556 26.8998 178.965 27.1277 178.384 27.2292C177.833 27.324 177.078 27.4022 176.703 27.4005C176.144 27.3988 176.022 27.339 176.022 27.0662C176.022 26.8832 176.144 26.4724 176.295 26.1514Z" fill="white"/>
<path d="M38.5 30.2703C39.5865 30.2703 39.8368 30.4975 40.3146 30.1433C40.6235 29.9154 40.8837 29.2629 41 29.2613C41 29.2613 41.3975 30.0019 41.5192 30.3479C41.6391 30.6922 41.8335 31.5371 41.9498 32.2224C42.0752 32.9592 42.1188 34.1518 42.0534 35.1331C41.9934 36.048 41.8099 37.2455 41.6482 37.7944C41.4865 38.3433 41.1104 39.2781 40.8124 39.8735C40.5145 40.469 39.9567 41.3672 39.5697 41.8695C39.1845 42.3718 38.4759 43.087 37.9944 43.4579C37.5148 43.8272 36.8553 44.2962 36.53 44.4975C36.2048 44.6987 35.8978 44.8251 35.8487 44.7802C35.7978 44.7353 35.8905 44.4542 36.054 44.1565C36.2157 43.8588 36.5028 43.0554 36.6917 42.3685C36.8789 41.6832 37.0333 40.8781 37.0315 40.5804C37.0297 40.138 37.1496 39.9717 37.6892 39.6656C38.0508 39.4594 38.5159 39.0286 38.7212 38.7092C39.0519 38.1903 39.0791 37.9607 38.9701 36.5885C38.8557 35.1598 38.8738 35.0234 39.2354 34.6757C39.5588 34.3664 39.6042 34.1867 39.497 33.6362C39.428 33.2703 39.2318 32.8378 39.0628 32.6748C38.8884 32.5051 38.5014 32.3804 38.1652 32.3837C37.6002 32.3887 37.5675 32.3521 37.3931 31.5571C37.2931 31.0997 37.1892 30.5049 37.1892 30.4599C37.1892 30.415 37.8005 30.2703 38.5 30.2703Z" fill="white"/>
<path d="M32.9253 31.9313C32.7672 31.2227 32.4382 29.8855 32.5 29.7658C32.5781 29.6144 33.0868 29.6809 35 29.7658L35.389 31.5304C35.5653 32.3089 35.6016 32.7729 35.4853 32.8095C35.3854 32.8411 34.8748 32.9459 34.3498 33.0424C33.8247 33.1405 33.3541 33.2204 33.305 33.2204C33.2542 33.2204 33.0852 32.6399 32.9253 31.9313Z" fill="white"/>
<path d="M28.4229 31.7236L29.5804 32.2057C30.0292 32.1509 30.5691 31.9896 30.7436 31.9763C30.918 31.963 30.6703 30.6109 30.6703 30.7257C30.6685 30.8404 31.0921 32.7164 31.1684 33.0158C31.2774 33.4466 31.2501 33.5597 31.0339 33.553C30.8831 33.548 30.5706 33.7143 30.3381 33.9223C29.9801 34.2433 29.9329 34.4046 30.0346 34.9668C30.1019 35.3327 30.2926 35.7652 30.458 35.9282C30.6251 36.0912 30.8631 36.2226 30.9885 36.2193C31.1139 36.2159 31.2883 36.3823 31.3773 36.5885C31.4682 36.7948 31.5 37.7408 31.8786 38.5015L30.716 38.2086C30.1418 38.2086 29.426 38.0938 29.1262 37.9541C28.8264 37.8144 28.3976 37.7029 28.1723 37.7063C27.947 37.7096 27.1601 38.2613 27.1564 38.2381C27.1546 38.2148 27.9761 37.179 28.2486 36.6301C28.681 35.7619 28.4065 34.834 28.4229 31.7236Z" fill="white"/>
<path d="M32.9507 41.4121C32.8962 40.8399 32.4455 40.4518 32.5 40.3604C32.5545 40.2689 32.4535 39.4107 32.4844 39.4107C32.5135 39.4107 33.4631 40.1513 33.8356 40.2877C34.4788 40.5239 34.5115 40.5721 34.5242 41.3272C34.5333 41.763 34.3452 42.3561 34 43.3874L33.5 43C33.0767 42.5942 33.0343 42.257 32.9507 41.4121Z" fill="white"/>
<path d="M22.2363 25.2784C22.2963 24.8443 22.3835 24.3902 22.4326 24.2688C22.5016 24.1008 22.6361 24.1257 23.0085 24.3802C23.2756 24.5632 23.9515 25.1486 24.5093 25.6809C25.0671 26.2148 25.812 26.9866 26.1645 27.3991C26.5169 27.8116 27.102 28.7081 27.4635 29.395C27.8269 30.0803 28.2575 31.1282 28.4229 31.7236C28.5882 32.3191 28.7299 33.4418 28.7372 34.2186C28.7481 35.4577 28.6809 35.7671 28.1994 36.7135C27.8978 37.309 27.3654 38.0575 27.0184 38.3768C26.6714 38.6962 26.0064 39.1452 25.5413 39.3748C25.0761 39.6026 24.6492 39.7341 24.5947 39.6659C24.5383 39.5977 24.6946 39.2983 24.9417 39.0005C25.1888 38.7028 25.5485 38.0857 25.7429 37.6283C25.9373 37.1709 26.1517 36.3476 26.219 35.7987C26.3044 35.1118 26.2535 34.4514 26.0536 33.678C25.8956 33.0609 25.5885 32.2376 25.3741 31.8484C25.1597 31.4592 24.8109 30.9336 24.6019 30.6808C24.3912 30.4263 24.1586 30.2217 24.0841 30.2234C24.0096 30.225 23.946 30.3581 23.9442 30.5178C23.9424 30.6774 23.6045 31.3694 23.1938 32.0563C22.785 32.7416 22.3163 33.4368 22.1546 33.5998C21.9911 33.7628 21.7966 33.8942 21.7222 33.8909C21.6477 33.8876 21.4024 33.5433 20.7683 32.3623L20.1614 33.4152C19.5891 34.4065 19.5601 34.5446 19.6309 35.7987C19.6854 36.7252 19.829 37.3439 20.1015 37.8362C20.3195 38.2254 20.8428 38.8908 22.0401 40.0867L21.0408 40.0151C20.4812 39.9752 19.6018 39.7507 19.0422 39.5062C18.4917 39.265 17.7159 38.781 17.3144 38.4317C16.9147 38.0807 16.4277 37.4953 16.2333 37.1293C16.0389 36.7634 15.8463 35.9783 15.8045 35.3829C15.7555 34.686 15.8318 33.9774 16.0207 33.3869C16.1824 32.8846 16.3878 32.3607 16.4786 32.2226C16.6185 32.0131 16.7584 32.058 18.0429 33.021L18.1629 31.6654C18.2283 30.9203 18.4172 30.0105 18.5807 29.6445C18.7443 29.2786 18.9968 28.8112 19.4056 28.2307L20.0234 28.8545C20.3631 29.1971 20.6811 29.4399 20.7283 29.395C20.7774 29.3501 21.1117 28.5817 21.4732 27.6902C21.8348 26.7986 22.1782 25.7125 22.2363 25.2784Z" fill="#F36409"/>
<path d="M35.0781 30.0884C34.8837 29.2751 34.8927 29.0921 35.138 28.7611C35.3542 28.4701 35.565 28.3902 35.9992 28.4285C36.4026 28.4651 36.6333 28.6031 36.7805 28.8959C36.895 29.1237 37.0385 29.5928 37.0984 29.9354C37.2093 30.5492 37.202 30.5592 36.6206 30.5575C36.2954 30.5575 35.8666 30.6639 35.6667 30.7937C35.3197 31.0199 35.2925 30.9866 35.0781 30.0884Z" fill="#F48941"/>
<path d="M22.7668 21.3247C23.3664 21.1667 24.3893 20.9788 25.038 20.9056C25.6866 20.8341 26.9548 20.8108 27.8541 20.8557C28.7535 20.8989 30.0817 21.0802 30.8066 21.2565C31.5315 21.4328 32.7579 21.8487 33.5319 22.1813C34.3059 22.514 35.4306 23.1045 36.0302 23.4937C36.6297 23.8845 37.5709 24.6413 38.1196 25.1769C38.6683 25.7125 39.3787 26.4892 39.6948 26.9001C40.011 27.3126 40.4888 28.0977 40.7541 28.6465C41.1302 29.4166 41.1847 29.6611 40.9976 29.721C40.8631 29.7626 40.5288 29.9689 40.2544 30.1784C39.8384 30.4961 39.5422 30.5593 37.2111 30.5593L37.0186 29.6861C36.9132 29.2054 36.7297 28.7164 36.6097 28.5983C36.4916 28.4785 36.1682 28.3854 35.8939 28.3904C35.5832 28.3937 35.2907 28.5384 35.1235 28.7713C34.9346 29.0324 34.8928 29.3102 35.1217 30.235L34.077 30.23C33.5029 30.2283 32.9305 30.2649 32.8052 30.3132C32.6671 30.3664 32.5072 30.1884 32.3964 29.8558C32.2383 29.3801 32.1293 29.3069 31.5334 29.2703C31.0065 29.2387 30.8102 29.3035 30.6703 29.5613C30.5492 29.7831 30.5492 30.1712 30.6703 30.7257C30.7703 31.1831 30.852 31.6687 30.852 31.8068C30.852 31.9681 30.6122 32.0879 30.1707 32.1461C29.7964 32.196 29.284 32.2659 29.0351 32.3008C28.6227 32.3607 28.5609 32.2891 28.3556 31.5041C28.2302 31.03 27.8305 30.082 27.4653 29.395C27.1001 28.7097 26.4133 27.6985 25.9428 27.1496C25.4704 26.6007 24.5419 25.6842 23.8806 25.112C23.2174 24.5399 22.6142 24.1024 22.5397 24.1374C22.4652 24.1739 22.3508 24.6031 22.2854 25.0937C22.2218 25.5844 21.8638 26.7338 21.4932 27.6486C21.1207 28.5634 20.7774 29.3501 20.7283 29.395C20.6811 29.4416 20.3631 29.1971 19.4056 28.2307L19.1421 28.605C18.9968 28.8112 18.7443 29.2786 18.5807 29.6445C18.4172 30.0104 18.2283 30.9203 18.0429 33.021L17.3434 32.4971C16.7584 32.0579 16.6185 32.0131 16.4786 32.2226C16.3878 32.3607 16.1824 32.8846 16.0207 33.3869C15.8318 33.9774 15.7555 34.686 15.8045 35.3829C15.8463 35.9783 16.0389 36.7634 16.2333 37.1293C16.4277 37.4953 16.9147 38.0807 17.3144 38.4317C17.7159 38.781 18.4935 39.265 19.0422 39.5062C19.6018 39.7507 20.4812 39.9752 22.0401 40.0867L21.2679 39.3149C20.8427 38.8908 20.3195 38.2254 20.1015 37.8362C19.829 37.3439 19.6854 36.7252 19.6309 35.7987C19.5601 34.5446 19.5891 34.4065 20.7683 32.3623L21.1771 33.1241C21.4024 33.5433 21.6477 33.8876 21.7222 33.8909C21.7966 33.8942 21.9911 33.7628 22.1546 33.5998C22.3163 33.4368 22.785 32.7432 23.1938 32.0563C23.6045 31.371 23.9424 30.6774 23.9442 30.5178C23.946 30.3581 24.0096 30.225 24.0841 30.2234C24.1586 30.2217 24.3912 30.4263 24.6019 30.6808C24.8109 30.9336 25.1597 31.4592 25.3741 31.8484C25.5885 32.2376 25.8956 33.0609 26.0536 33.678C26.2535 34.4514 26.3044 35.1118 26.219 35.7987C26.1517 36.3476 25.9373 37.1709 25.7429 37.6283C25.5485 38.0857 25.1888 38.7028 24.9417 39.0005C24.6946 39.2983 24.5383 39.5977 24.5947 39.6659C24.6492 39.7341 25.0779 39.6043 25.5449 39.3748C26.0118 39.1469 26.6822 38.6812 27.0329 38.3419C27.4217 37.9676 27.8505 37.7215 28.1267 37.7131C28.3774 37.7065 28.8264 37.8144 29.1262 37.9541C29.426 38.0938 30.1418 38.2086 30.716 38.2086C31.5445 38.2102 31.7841 38.2703 31.8786 38.5015C31.9422 38.6612 32.202 39.0554 32.4563 39.3748C32.8306 39.8488 32.9269 40.1881 32.976 41.2044C33.0305 42.3005 33.0661 42.5191 34 43.3874L33.6682 43.9738C33.4683 44.3014 32.876 44.9352 32.351 45.3826C31.8259 45.8283 30.9265 46.4005 30.3524 46.6517C29.3985 47.0692 29.126 47.1091 27.2182 47.1074C25.772 47.1058 24.7654 47.0143 23.9478 46.808C23.2992 46.6434 22.2345 46.314 21.5859 46.0745C20.9372 45.8367 19.8471 45.3343 19.1639 44.9618C18.4808 44.5875 17.3743 43.7958 16.7039 43.2003C16.0334 42.6049 15.1141 41.5953 14.6617 40.9549C14.2093 40.3145 13.6697 39.4546 13.4625 39.0421C13.2572 38.6296 12.9483 37.8811 12.7794 37.3788C12.6104 36.8765 12.4251 35.6407 12.3669 34.6344C12.2797 33.0909 12.3288 32.5436 12.6794 31.1415C12.9502 30.0603 13.3771 28.9825 13.8968 28.0644C14.3383 27.2876 15.0414 26.2481 15.4611 25.7574C15.8826 25.2651 16.6348 24.5498 17.1345 24.1673C17.6341 23.7847 18.2882 23.314 18.588 23.1211C18.8878 22.9281 19.7054 22.5107 20.4049 22.1913C21.1044 21.8736 22.1673 21.4827 22.7668 21.3247Z" fill="white"/>
</svg>
